<?xml version="1.0" encoding="UTF-8"?>
<svg version="1.1" xmlns="http://www.w3.org/2000/svg" width="45" height="45">
<path d="M0 0 C14.85 0 29.7 0 45 0 C45 14.85 45 29.7 45 45 C30.15 45 15.3 45 0 45 C0 30.15 0 15.3 0 0 Z " fill="#3F3C38" transform="translate(0,0)"/>
<path d="M0 0 C1.46373047 0.06767578 1.46373047 0.06767578 2.95703125 0.13671875 C3.69308594 0.19472656 4.42914063 0.25273437 5.1875 0.3125 C5.1875 1.6325 5.1875 2.9525 5.1875 4.3125 C-0.2575 4.8075 -0.2575 4.8075 -5.8125 5.3125 C-6.1425 7.6225 -6.4725 9.9325 -6.8125 12.3125 C-3.5125 12.3125 -0.2125 12.3125 3.1875 12.3125 C3.1875 13.3025 3.1875 14.2925 3.1875 15.3125 C-0.1125 15.3125 -3.4125 15.3125 -6.8125 15.3125 C-6.8125 18.6125 -6.8125 21.9125 -6.8125 25.3125 C-8.1325 25.3125 -9.4525 25.3125 -10.8125 25.3125 C-10.95834064 22.08381254 -11.04674106 18.85597635 -11.125 15.625 C-11.16689453 14.71298828 -11.20878906 13.80097656 -11.25195312 12.86132812 C-11.33465044 8.31297591 -11.29857624 6.01695832 -8.65625 2.1875 C-5.40611932 0.04455669 -3.84236371 -0.23146769 0 0 Z " fill="#E0E0DF" transform="translate(25.8125,9.6875)"/>
</svg>
